[Header]
FileType HTR
DataType HTRS
FileVersion 1
NumSegments 64
NumFrames 4
DataFrameRate 30
EulerRotationOrder ZYX
CalibrationUnits mm
RotationUnits Degrees
GlobalAxisofGravity Y
BoneLengthAxis Y
ScaleFactor 1.0
[SegmentNames&Hierarchy]
Hips	GLOBAL
Spine	Hips
Spine1	Spine
Spine2	Spine1
Neck	Spine2
Head	Neck
LeftEye	Head
RightEye	Head
LeftShoulder	Spine2
LeftArm	LeftShoulder
LeftForeArm	LeftArm
LeftHand	LeftForeArm
LeftHandThumb1	LeftHand
LeftHandThumb2	LeftHandThumb1
LeftHandThumb3	LeftHandThumb2
LeftHandThumb4	LeftHandThumb3
LeftHandIndex1	LeftHand
LeftHandIndex2	LeftHandIndex1
LeftHandIndex3	LeftHandIndex2
LeftHandIndex4	LeftHandIndex3
LeftHandMiddle1	LeftHand
LeftHandMiddle2	LeftHandMiddle1
LeftHandMiddle3	LeftHandMiddle2
LeftHandMiddle4	LeftHandMiddle3
LeftHandRing1	LeftHand
LeftHandRing2	LeftHandRing1
LeftHandRing3	LeftHandRing2
LeftHandRing4	LeftHandRing3
LeftHandPinky1	LeftHand
LeftHandPinky2	LeftHandPinky1
LeftHandPinky3	LeftHandPinky2
LeftHandPinky4	LeftHandPinky3
RightShoulder	Spine2
RightArm	RightShoulder
RightForeArm	RightArm
RightHand	RightForeArm
RightHandPinky1	RightHand
RightHandPinky2	RightHandPinky1
RightHandPinky3	RightHandPinky2
RightHandPinky4	RightHandPinky3
RightHandRing1	RightHand
RightHandRing2	RightHandRing1
RightHandRing3	RightHandRing2
RightHandRing4	RightHandRing3
RightHandMiddle1	RightHand
RightHandMiddle2	RightHandMiddle1
RightHandMiddle3	RightHandMiddle2
RightHandMiddle4	RightHandMiddle3
RightHandIndex1	RightHand
RightHandIndex2	RightHandIndex1
RightHandIndex3	RightHandIndex2
RightHandIndex4	RightHandIndex3
RightHandThumb1	RightHand
RightHandThumb2	RightHandThumb1
RightHandThumb3	RightHandThumb2
RightHandThumb4	RightHandThumb3
LeftUpLeg	Hips
LeftLeg	LeftUpLeg
LeftFoot	LeftLeg
LeftToeBase	LeftFoot
RightUpLeg	Hips
RightLeg	RightUpLeg
RightFoot	RightLeg
RightToeBase	RightFoot
[BasePosition]
Hips	0	0	0	0	0	0	1
Spine	0	0	0	0	0	0	1
Spine1	0	0	0	0	0	0	1
Spine2	0	0	0	0	0	0	1
Neck	0	0	0	0	0	0	1
Head	0	0	0	0	0	0	1
LeftEye	0	0	0	0	0	0	1
RightEye	0	0	0	0	0	0	1
LeftShoulder	0	0	0	0	0	0	1
LeftArm	0	0	0	0	0	0	1
LeftForeArm	0	0	0	0	0	0	1
LeftHand	0	0	0	0	0	0	1
LeftHandThumb1	0	0	0	0	0	0	1
LeftHandThumb2	0	0	0	0	0	0	1
LeftHandThumb3	0	0	0	0	0	0	1
LeftHandThumb4	0	0	0	0	0	0	1
LeftHandIndex1	0	0	0	0	0	0	1
LeftHandIndex2	0	0	0	0	0	0	1
LeftHandIndex3	0	0	0	0	0	0	1
LeftHandIndex4	0	0	0	0	0	0	1
LeftHandMiddle1	0	0	0	0	0	0	1
LeftHandMiddle2	0	0	0	0	0	0	1
LeftHandMiddle3	0	0	0	0	0	0	1
LeftHandMiddle4	0	0	0	0	0	0	1
LeftHandRing1	0	0	0	0	0	0	1
LeftHandRing2	0	0	0	0	0	0	1
LeftHandRing3	0	0	0	0	0	0	1
LeftHandRing4	0	0	0	0	0	0	1
LeftHandPinky1	0	0	0	0	0	0	1
LeftHandPinky2	0	0	0	0	0	0	1
LeftHandPinky3	0	0	0	0	0	0	1
LeftHandPinky4	0	0	0	0	0	0	1
RightShoulder	0	0	0	0	0	0	1
RightArm	0	0	0	0	0	0	1
RightForeArm	0	0	0	0	0	0	1
RightHand	0	0	0	0	0	0	1
RightHandPinky1	0	0	0	0	0	0	1
RightHandPinky2	0	0	0	0	0	0	1
RightHandPinky3	0	0	0	0	0	0	1
RightHandPinky4	0	0	0	0	0	0	1
RightHandRing1	0	0	0	0	0	0	1
RightHandRing2	0	0	0	0	0	0	1
RightHandRing3	0	0	0	0	0	0	1
RightHandRing4	0	0	0	0	0	0	1
RightHandMiddle1	0	0	0	0	0	0	1
RightHandMiddle2	0	0	0	0	0	0	1
RightHandMiddle3	0	0	0	0	0	0	1
RightHandMiddle4	0	0	0	0	0	0	1
RightHandIndex1	0	0	0	0	0	0	1
RightHandIndex2	0	0	0	0	0	0	1
RightHandIndex3	0	0	0	0	0	0	1
RightHandIndex4	0	0	0	0	0	0	1
RightHandThumb1	0	0	0	0	0	0	1
RightHandThumb2	0	0	0	0	0	0	1
RightHandThumb3	0	0	0	0	0	0	1
RightHandThumb4	0	0	0	0	0	0	1
LeftUpLeg	0	0	0	0	0	0	1
LeftLeg	0	0	0	0	0	0	1
LeftFoot	0	0	0	0	0	0	1
LeftToeBase	0	0	0	0	0	0	1
RightUpLeg	0	0	0	0	0	0	1
RightLeg	0	0	0	0	0	0	1
RightFoot	0	0	0	0	0	0	1
RightToeBase	0	0	0	0	0	0	1
[Hips]
173	-4.926015854	1033.728149	23.81874084	-3.879878998	-5.500278473	-2.979546309	1.0
174	-4.968389988	1033.611328	23.83491898	-3.936971188	-5.479130268	-2.984804153	1.0
175	-5.048107147	1033.493774	23.83067131	-3.992933512	-5.451816559	-2.992387295	1.0
176	-5.161955357	1033.401978	23.82324028	-4.043428898	-5.421172142	-3.0026052	1.0
[Spine]
173	0	101.8159943	1.315000057	3.917965174	1.912533879	3.098971844	1.0
174	0	101.8159943	1.315000057	3.96535635	1.925996065	3.117624283	1.0
175	0	101.8159943	1.315000057	3.999742985	1.930042267	3.134110212	1.0
176	0	101.8159943	1.315000057	4.017073154	1.934462309	3.150171995	1.0
[Spine1]
173	0	100.8349991	-10.00800037	1.286816835	0.5325936079	1.657511592	1.0
174	0	100.8349991	-10.00800037	1.300050378	0.5388918519	1.662936687	1.0
175	0	100.8349991	-10.00800037	1.309316993	0.5412159562	1.667807102	1.0
176	0	100.8349991	-10.00800037	1.313123584	0.5434674621	1.672808051	1.0
[Spine2]
173	0	91	-13.73399925	1.261926174	0.5552895069	1.658575177	1.0
174	0	91	-13.73399925	1.275197983	0.5615927577	1.663860798	1.0
175	0	91	-13.73399925	1.284503102	0.5639110208	1.668633938	1.0
176	0	91	-13.73399925	1.288348198	0.5661451817	1.673568726	1.0
[Neck]
173	0	166.7169952	-25.16200066	6.002843857	-0.2282803804	0.3122451007	1.0
174	0	166.7169952	-25.16200066	6.053268909	-0.2236876488	0.3027573526	1.0
175	0	166.7169952	-25.16200066	6.105451107	-0.2215289325	0.3011318445	1.0
176	0	166.7169952	-25.16200066	6.157774925	-0.2245932966	0.3018655777	1.0
[Head]
173	0	96.17900085	16.84999847	-8.525712013	0.9776989818	-0.2022455484	1.0
174	0	96.17900085	16.84999847	-8.497525215	1.006450415	-0.2360438257	1.0
175	0	96.17900085	16.84999847	-8.444021225	1.023333311	-0.2503415644	1.0
176	0	96.17900085	16.84999847	-8.369837761	1.012833714	-0.2455330044	1.0
[LeftEye]
173	30.6760006	64.09500122	92.83599854	0	0	0	1.0
174	30.6760006	64.09500122	92.83599854	0	0	0	1.0
175	30.6760006	64.09500122	92.83599854	0	0	0	1.0
176	30.6760006	64.09500122	92.83599854	0	0	0	1.0
[RightEye]
173	-30.6760006	64.09500122	92.83499908	0	0	0	1.0
174	-30.6760006	64.09500122	92.83499908	0	0	0	1.0
175	-30.6760006	64.09500122	92.83499908	0	0	0	1.0
176	-30.6760006	64.09500122	92.83499908	0	0	0	1.0
[LeftShoulder]
173	45.70400238	109.4599991	-26.28000069	4.970691681	-16.91609573	-13.5152235	1.0
174	45.70400238	109.4599991	-26.28000069	4.980622768	-16.96326637	-13.55031395	1.0
175	45.70400238	109.4599991	-26.28000069	4.984982967	-16.98860741	-13.56381321	1.0
176	45.70400238	109.4599991	-26.28000069	4.985916615	-16.99463463	-13.56648254	1.0
[LeftArm]
173	105.923996	-5.24600029	-22.32099915	19.9718647	-3.973255634	-70.97202301	1.0
174	105.923996	-5.24600029	-22.32099915	19.96315384	-3.979656696	-70.95540619	1.0
175	105.923996	-5.24600029	-22.32099915	19.95397377	-3.987583637	-70.96205139	1.0
176	105.923996	-5.24600029	-22.32099915	19.93604088	-3.999527931	-70.97681427	1.0
[LeftForeArm]
173	278.414978	-0.0009999999311	0	-6.724808372e-06	-1.746856332	-0.0002113585651	1.0
174	278.414978	-0.0009999999311	0	-5.151270216e-06	-1.766151428	-0.0002118619159	1.0
175	278.414978	-0.0009999999311	0	-4.248355708e-06	-1.78027463	-0.0002181185555	1.0
176	278.414978	-0.0009999999311	0	-3.338609758e-06	-1.791999459	-0.0002079591941	1.0
[LeftHand]
173	283.2879944	0	0	-33.161129	-4.831736088	-3.637013912	1.0
174	283.2879944	0	0	-33.23176193	-4.880240917	-3.562690735	1.0
175	283.2879944	0	0	-33.28948593	-4.915367126	-3.494180202	1.0
176	283.2879944	0	0	-33.33234787	-4.931461811	-3.458025932	1.0
[LeftHandThumb1]
173	24.6609993	-15.75	26.8239994	-0.4889889657	2.201390743	4.818541527	1.0
174	24.6609993	-15.75	26.8239994	-0.4889889657	2.201390743	4.818541527	1.0
175	24.6609993	-15.75	26.8239994	-0.4889889657	2.201390743	4.818541527	1.0
176	24.6609993	-15.75	26.8239994	-0.4889889657	2.201390743	4.818541527	1.0
[LeftHandThumb2]
173	32.29800034	-18.64699936	18.64699936	19.88581276	19.96446037	23.26738167	1.0
174	32.29800034	-18.64699936	18.64699936	19.88581276	19.96446037	23.26738167	1.0
175	32.29800034	-18.64699936	18.64699936	19.88581276	19.96446037	23.26738167	1.0
176	32.29800034	-18.64699936	18.64699936	19.88581276	19.96446037	23.26738167	1.0
[LeftHandThumb3]
173	26.52600098	-15.31499958	15.31499958	-13.14535904	5.551738262	7.967928886	1.0
174	26.52600098	-15.31499958	15.31499958	-13.14535904	5.551738262	7.967928886	1.0
175	26.52600098	-15.31499958	15.31499958	-13.14535904	5.551738262	7.967928886	1.0
176	26.52600098	-15.31499958	15.31499958	-13.14535904	5.551738262	7.967928886	1.0
[LeftHandThumb4]
173	19.54599953	-11.28499985	11.28499985	0	0	0	1.0
174	19.54599953	-11.28499985	11.28499985	0	0	0	1.0
175	19.54599953	-11.28499985	11.28499985	0	0	0	1.0
176	19.54599953	-11.28499985	11.28499985	0	0	0	1.0
[LeftHandIndex1]
173	91.09299469	-5.170999527	22.60099792	0.1480516791	-0.9618676901	-7.594518185	1.0
174	91.09299469	-5.170999527	22.60099792	0.1480516791	-0.9618676901	-7.594518185	1.0
175	91.09299469	-5.170999527	22.60099792	0.1480516791	-0.9618676901	-7.594518185	1.0
176	91.09299469	-5.170999527	22.60099792	0.1480516791	-0.9618676901	-7.594518185	1.0
[LeftHandIndex2]
173	36.76399994	0	0	-0.2667043209	1.745171905	-17.37646866	1.0
174	36.76399994	0	0	-0.2667043209	1.745171905	-17.37646866	1.0
175	36.76399994	0	0	-0.2667043209	1.745171905	-17.37646866	1.0
176	36.76399994	0	0	-0.2667043209	1.745171905	-17.37646866	1.0
[LeftHandIndex3]
173	28.83100128	0	0	-0.05742863193	0.817338407	-8.038370132	1.0
174	28.83100128	0	0	-0.05742863193	0.817338407	-8.038370132	1.0
175	28.83100128	0	0	-0.05742863193	0.817338407	-8.038370132	1.0
176	28.83100128	0	0	-0.05742863193	0.817338407	-8.038370132	1.0
[LeftHandIndex4]
173	23.92700005	0	0	0	0	0	1.0
174	23.92700005	0	0	0	0	0	1.0
175	23.92700005	0	0	0	0	0	1.0
176	23.92700005	0	0	0	0	0	1.0
[LeftHandMiddle1]
173	95.33399963	0	0	-0.7942916155	2.538622379	-15.71737862	1.0
174	95.33399963	0	0	-0.7942916155	2.538622379	-15.71737862	1.0
175	95.33399963	0	0	-0.7942916155	2.538622379	-15.71737862	1.0
176	95.33399963	0	0	-0.7942916155	2.538622379	-15.71737862	1.0
[LeftHandMiddle2]
173	36.98199844	0	0	-0.267610997	1.748071074	-17.40625954	1.0
174	36.98199844	0	0	-0.267610997	1.748071074	-17.40625954	1.0
175	36.98199844	0	0	-0.267610997	1.748071074	-17.40625954	1.0
176	36.98199844	0	0	-0.267610997	1.748071074	-17.40625954	1.0
[LeftHandMiddle3]
173	29.50900078	0	0	-0.2992140949	1.84580946	-18.41413307	1.0
174	29.50900078	0	0	-0.2992140949	1.84580946	-18.41413307	1.0
175	29.50900078	0	0	-0.2992140949	1.84580946	-18.41413307	1.0
176	29.50900078	0	0	-0.2992140949	1.84580946	-18.41413307	1.0
[LeftHandMiddle4]
173	28.3390007	0	0	0	0	0	1.0
174	28.3390007	0	0	0	0	0	1.0
175	28.3390007	0	0	0	0	0	1.0
176	28.3390007	0	0	0	0	0	1.0
[LeftHandRing1]
173	91.04499817	-0.4390000105	-18.65100098	-1.184956431	3.436642885	-21.16632462	1.0
174	91.04499817	-0.4390000105	-18.65100098	-1.184956431	3.436642885	-21.16632462	1.0
175	91.04499817	-0.4390000105	-18.65100098	-1.184956431	3.436642885	-21.16632462	1.0
176	91.04499817	-0.4390000105	-18.65100098	-1.184956431	3.436642885	-21.16632462	1.0
[LeftHandRing2]
173	31.54000092	0	0	-0.3849357069	2.085560799	-20.91281319	1.0
174	31.54000092	0	0	-0.3849357069	2.085560799	-20.91281319	1.0
175	31.54000092	0	0	-0.3849357069	2.085560799	-20.91281319	1.0
176	31.54000092	0	0	-0.3849357069	2.085560799	-20.91281319	1.0
[LeftHandRing3]
173	29.37700081	0	0	-0.2818065584	1.792707562	-17.86576271	1.0
174	29.37700081	0	0	-0.2818065584	1.792707562	-17.86576271	1.0
175	29.37700081	0	0	-0.2818065584	1.792707562	-17.86576271	1.0
176	29.37700081	0	0	-0.2818065584	1.792707562	-17.86576271	1.0
[LeftHandRing4]
173	26.47500038	0	0	0	0	0	1.0
174	26.47500038	0	0	0	0	0	1.0
175	26.47500038	0	0	0	0	0	1.0
176	26.47500038	0	0	0	0	0	1.0
[LeftHandPinky1]
173	80.77799988	-4.887000084	-38.06099701	-1.708467126	5.355370045	-27.1653862	1.0
174	80.77799988	-4.887000084	-38.06099701	-1.708467126	5.355370045	-27.1653862	1.0
175	80.77799988	-4.887000084	-38.06099701	-1.708467126	5.355370045	-27.1653862	1.0
176	80.77799988	-4.887000084	-38.06099701	-1.708467126	5.355370045	-27.1653862	1.0
[LeftHandPinky2]
173	36	0	0	-0.2676221728	1.748113751	-17.40663528	1.0
174	36	0	0	-0.2676221728	1.748113751	-17.40663528	1.0
175	36	0	0	-0.2676221728	1.748113751	-17.40663528	1.0
176	36	0	0	-0.2676221728	1.748113751	-17.40663528	1.0
[LeftHandPinky3]
173	21.14200211	0	0	-0.2408525199	1.660349369	-16.50663185	1.0
174	21.14200211	0	0	-0.2408525199	1.660349369	-16.50663185	1.0
175	21.14200211	0	0	-0.2408525199	1.660349369	-16.50663185	1.0
176	21.14200211	0	0	-0.2408525199	1.660349369	-16.50663185	1.0
[LeftHandPinky4]
173	19.75699997	0	0	0	0	0	1.0
174	19.75699997	0	0	0	0	0	1.0
175	19.75699997	0	0	0	0	0	1.0
176	19.75699997	0	0	0	0	0	1.0
[RightShoulder]
173	-45.70000076	109.4620056	-26.28000069	5.334005833	14.99815845	16.16536903	1.0
174	-45.70000076	109.4620056	-26.28000069	5.336548328	15.04376793	16.15571976	1.0
175	-45.70000076	109.4620056	-26.28000069	5.338380337	15.08555222	16.14402008	1.0
176	-45.70000076	109.4620056	-26.28000069	5.338249207	15.11409092	16.12797546	1.0
[RightArm]
173	-105.9280014	-5.248000145	-22.32099915	29.88094902	1.72547245	62.36067581	1.0
174	-105.9280014	-5.248000145	-22.32099915	29.88379669	1.745702863	62.31000137	1.0
175	-105.9280014	-5.248000145	-22.32099915	29.87309647	1.75926888	62.26757813	1.0
176	-105.9280014	-5.248000145	-22.32099915	29.84175682	1.757262111	62.24369431	1.0
[RightForeArm]
173	-278.414978	0	0	-6.749546174e-06	6.724667549	7.847359484e-06	1.0
174	-278.414978	0	0	-4.964848813e-06	6.736854076	9.448136552e-06	1.0
175	-278.414978	0	0	-5.704703653e-06	6.745819092	6.191395187e-06	1.0
176	-278.414978	0	0	3.340055059e-07	6.755806923	5.535818218e-06	1.0
[RightHand]
173	-283.2879944	0	0.0009999999311	-20.36934471	1.621125102	5.803843975	1.0
174	-283.2879944	0	0.0009999999311	-20.40559769	1.61879015	5.816717625	1.0
175	-283.2879944	0	0.0009999999311	-20.43026352	1.613461375	5.838688374	1.0
176	-283.2879944	0	0.0009999999311	-20.44820213	1.607881665	5.857404232	1.0
[RightHandPinky1]
173	-80.76699829	-4.885000229	-38.06000137	-1.507175922	-4.696118355	26.50587463	1.0
174	-80.76699829	-4.885000229	-38.06000137	-1.507175922	-4.696118355	26.50587463	1.0
175	-80.76699829	-4.885000229	-38.06000137	-1.507175922	-4.696118355	26.50587463	1.0
176	-80.76699829	-4.885000229	-38.06000137	-1.507175922	-4.696118355	26.50587463	1.0
[RightHandPinky2]
173	-36	0	0.0009999999311	-0.2127676606	-1.388874292	17.43785858	1.0
174	-36	0	0.0009999999311	-0.2127676606	-1.388874292	17.43785858	1.0
175	-36	0	0.0009999999311	-0.2127676606	-1.388874292	17.43785858	1.0
176	-36	0	0.0009999999311	-0.2127676606	-1.388874292	17.43785858	1.0
[RightHandPinky3]
173	-21.14200211	0	0	-0.1919144988	-1.32059598	16.53641129	1.0
174	-21.14200211	0	0	-0.1919144988	-1.32059598	16.53641129	1.0
175	-21.14200211	0	0	-0.1919144988	-1.32059598	16.53641129	1.0
176	-21.14200211	0	0	-0.1919144988	-1.32059598	16.53641129	1.0
[RightHandPinky4]
173	-19.75699997	0	0	0	0	0	1.0
174	-19.75699997	0	0	0	0	0	1.0
175	-19.75699997	0	0	0	0	0	1.0
176	-19.75699997	0	0	0	0	0	1.0
[RightHandRing1]
173	-91.03599548	-0.4390000105	-18.65100098	-1.045235753	-2.883111477	20.47788429	1.0
174	-91.03599548	-0.4390000105	-18.65100098	-1.045235753	-2.883111477	20.47788429	1.0
175	-91.03599548	-0.4390000105	-18.65100098	-1.045235753	-2.883111477	20.47788429	1.0
176	-91.03599548	-0.4390000105	-18.65100098	-1.045235753	-2.883111477	20.47788429	1.0
[RightHandRing2]
173	-31.54000092	0	0	-0.3066971898	-1.658752441	20.94926834	1.0
174	-31.54000092	0	0	-0.3066971898	-1.658752441	20.94926834	1.0
175	-31.54000092	0	0	-0.3066971898	-1.658752441	20.94926834	1.0
176	-31.54000092	0	0	-0.3066971898	-1.658752441	20.94926834	1.0
[RightHandRing3]
173	-29.37700081	0	0	-0.2245407403	-1.425854325	17.89771652	1.0
174	-29.37700081	0	0	-0.2245407403	-1.425854325	17.89771652	1.0
175	-29.37700081	0	0	-0.2245407403	-1.425854325	17.89771652	1.0
176	-29.37700081	0	0	-0.2245407403	-1.425854325	17.89771652	1.0
[RightHandRing4]
173	-26.47500038	0	0	0	0	0	1.0
174	-26.47500038	0	0	0	0	0	1.0
175	-26.47500038	0	0	0	0	0	1.0
176	-26.47500038	0	0	0	0	0	1.0
[RightHandMiddle1]
173	-95.32500458	0	0	-0.7017197609	-2.087752104	15.0152874	1.0
174	-95.32500458	0	0	-0.7017197609	-2.087752104	15.0152874	1.0
175	-95.32500458	0	0	-0.7017197609	-2.087752104	15.0152874	1.0
176	-95.32500458	0	0	-0.7017197609	-2.087752104	15.0152874	1.0
[RightHandMiddle2]
173	-36.98199844	0	0	-0.213228479	-1.390354872	17.43750381	1.0
174	-36.98199844	0	0	-0.213228479	-1.390354872	17.43750381	1.0
175	-36.98199844	0	0	-0.213228479	-1.390354872	17.43750381	1.0
176	-36.98199844	0	0	-0.213228479	-1.390354872	17.43750381	1.0
[RightHandMiddle3]
173	-29.50900078	0	0	-0.2384106964	-1.470119596	18.44692802	1.0
174	-29.50900078	0	0	-0.2384106964	-1.470119596	18.44692802	1.0
175	-29.50900078	0	0	-0.2384106964	-1.470119596	18.44692802	1.0
176	-29.50900078	0	0	-0.2384106964	-1.470119596	18.44692802	1.0
[RightHandMiddle4]
173	-28.3390007	0	0.0009999999311	0	0	0	1.0
174	-28.3390007	0	0.0009999999311	0	0	0	1.0
175	-28.3390007	0	0.0009999999311	0	0	0	1.0
176	-28.3390007	0	0.0009999999311	0	0	0	1.0
[RightHandIndex1]
173	-91.08300018	-5.167999744	22.60099792	0.1884763837	1.25192976	6.825599194	1.0
174	-91.08300018	-5.167999744	22.60099792	0.1884763837	1.25192976	6.825599194	1.0
175	-91.08300018	-5.167999744	22.60099792	0.1884763837	1.25192976	6.825599194	1.0
176	-91.08300018	-5.167999744	22.60099792	0.1884763837	1.25192976	6.825599194	1.0
[RightHandIndex2]
173	-36.76399994	0	0	-0.2125098109	-1.388050556	17.40767097	1.0
174	-36.76399994	0	0	-0.2125098109	-1.388050556	17.40767097	1.0
175	-36.76399994	0	0	-0.2125098109	-1.388050556	17.40767097	1.0
176	-36.76399994	0	0	-0.2125098109	-1.388050556	17.40767097	1.0
[RightHandIndex3]
173	-28.83100128	0	0	-0.04576345533	-0.650116384	8.053516388	1.0
174	-28.83100128	0	0	-0.04576345533	-0.650116384	8.053516388	1.0
175	-28.83100128	0	0	-0.04576345533	-0.650116384	8.053516388	1.0
176	-28.83100128	0	0	-0.04576345533	-0.650116384	8.053516388	1.0
[RightHandIndex4]
173	-23.92700005	0	0	0	0	0	1.0
174	-23.92700005	0	0	0	0	0	1.0
175	-23.92700005	0	0	0	0	0	1.0
176	-23.92700005	0	0	0	0	0	1.0
[RightHandThumb1]
173	-24.64799881	-15.72700024	26.82600021	-1.658462524	-0.2891407609	-4.221328735	1.0
174	-24.64799881	-15.72700024	26.82600021	-1.658462524	-0.2891407609	-4.221328735	1.0
175	-24.64799881	-15.72700024	26.82600021	-1.658462524	-0.2891407609	-4.221328735	1.0
176	-24.64799881	-15.72700024	26.82600021	-1.658462524	-0.2891407609	-4.221328735	1.0
[RightHandThumb2]
173	-32.29800034	-18.64699936	18.64699936	22.25259209	-23.88967514	-24.282444	1.0
174	-32.29800034	-18.64699936	18.64699936	22.25259209	-23.88967514	-24.282444	1.0
175	-32.29800034	-18.64699936	18.64699936	22.25259209	-23.88967514	-24.282444	1.0
176	-32.29800034	-18.64699936	18.64699936	22.25259209	-23.88967514	-24.282444	1.0
[RightHandThumb3]
173	-26.52600098	-15.31399918	15.31399918	-14.47830296	-6.743862152	-11.36570263	1.0
174	-26.52600098	-15.31399918	15.31399918	-14.47830296	-6.743862152	-11.36570263	1.0
175	-26.52600098	-15.31399918	15.31399918	-14.47830296	-6.743862152	-11.36570263	1.0
176	-26.52600098	-15.31399918	15.31399918	-14.47830296	-6.743862152	-11.36570263	1.0
[RightHandThumb4]
173	-19.54599953	-11.28499985	11.28499985	0	0	0	1.0
174	-19.54599953	-11.28499985	11.28499985	0	0	0	1.0
175	-19.54599953	-11.28499985	11.28499985	0	0	0	1.0
176	-19.54599953	-11.28499985	11.28499985	0	0	0	1.0
[LeftUpLeg]
173	82.07800293	-67.51699829	-15.99599934	-7.209011078	16.62758827	7.886125088	1.0
174	82.07800293	-67.51699829	-15.99599934	-7.208141804	16.67036819	7.915588379	1.0
175	82.07800293	-67.51699829	-15.99599934	-7.211929321	16.71579933	7.949343681	1.0
176	82.07800293	-67.51699829	-15.99599934	-7.209440231	16.75191307	7.98128891	1.0
[LeftLeg]
173	0	-443.7049866	2.845999956	12.25225449	0.645401895	4.467726707	1.0
174	0	-443.7049866	2.845999956	12.366889	0.5693480372	4.442033768	1.0
175	0	-443.7049866	2.845999956	12.48261833	0.4831522703	4.41190958	1.0
176	0	-443.7049866	2.845999956	12.570858	0.4017123282	4.390871525	1.0
[LeftFoot]
173	0	-444.2789917	-29.8219986	0.8273938894	0.6893963218	-7.355118275	1.0
174	0	-444.2789917	-29.8219986	0.7654867172	0.6871789098	-7.347507	1.0
175	0	-444.2789917	-29.8219986	0.7082222104	0.6844021082	-7.335478306	1.0
176	0	-444.2789917	-29.8219986	0.6647906303	0.682359159	-7.326073647	1.0
[LeftToeBase]
173	0	-87.28699493	107.1060028	-4.93277359	2.130748953e-06	2.826487844e-06	1.0
174	0	-87.28699493	107.1060028	-4.941228867	-1.063066748e-06	-3.802138622e-07	1.0
175	0	-87.28699493	107.1060028	-4.952233791	-6.873351595e-06	-4.985053693e-06	1.0
176	0	-87.28699493	107.1060028	-4.95553112	-6.640487754e-06	-7.06502874e-07	1.0
[RightUpLeg]
173	-82.07800293	-67.51699829	-15.99599934	0.8041286469	-10.65417862	3.133149147	1.0
174	-82.07800293	-67.51699829	-15.99599934	0.8046785593	-10.66318035	3.130773306	1.0
175	-82.07800293	-67.51699829	-15.99599934	0.8051704764	-10.66858101	3.134170771	1.0
176	-82.07800293	-67.51699829	-15.99599934	0.8179753423	-10.66620541	3.145083427	1.0
[RightLeg]
173	0	-443.7049866	2.861999989	8.642765999	-9.199292183	-4.741981983	1.0
174	0	-443.7049866	2.861999989	8.774464607	-9.188537598	-4.76600647	1.0
175	0	-443.7049866	2.861999989	8.90248394	-9.178255081	-4.788098812	1.0
176	0	-443.7049866	2.861999989	8.993803024	-9.170607567	-4.804253101	1.0
[RightFoot]
173	0	-444.2770081	-29.83799934	-4.807178974	-1.080648422	3.34171772	1.0
174	0	-444.2770081	-29.83799934	-4.880413532	-1.085605502	3.355868101	1.0
175	0	-444.2770081	-29.83799934	-4.952489853	-1.10313201	3.366603851	1.0
176	0	-444.2770081	-29.83799934	-5.007470131	-1.135911703	3.372095823	1.0
[RightToeBase]
173	0	-87.28699493	107.1060028	-7.043584347	-1.933012072e-06	-1.504752845e-06	1.0
174	0	-87.28699493	107.1060028	-7.062382221	1.16756346e-05	-2.011891638e-06	1.0
175	0	-87.28699493	107.1060028	-7.082710743	2.558119377e-05	-2.411992682e-06	1.0
176	0	-87.28699493	107.1060028	-7.098604679	-3.052622196e-05	-2.831861536e-07	1.0
[EndOfFile]
